<mxfile host="app.diagrams.net" modified="2024-06-19T17:27:16.276Z" agent="Mozilla/5.0 (Windows NT 10.0; Win64; x64) AppleWebKit/537.36 (KHTML, like Gecko) Chrome/125.0.0.0 Safari/537.36" etag="FQuxo1MXpW-apoFcchkl" version="24.5.5" type="github">
  <diagram name="Page-1" id="b7a7eaba-c6c5-6fbe-34ae-1d3a4219ac39">
    <mxGraphModel dx="1434" dy="705" grid="1" gridSize="10" guides="1" tooltips="1" connect="1" arrows="1" fold="1" page="1" pageScale="1.5" pageWidth="1169" pageHeight="826" background="none" math="0" shadow="0">
      <root>
        <mxCell id="0" style=";html=1;" />
        <mxCell id="1" style=";html=1;" parent="0" />
        <mxCell id="279d4c6e8b4f5ae2-3" value="" style="html=1;shadow=0;dashed=0;align=center;verticalAlign=middle;shape=mxgraph.arrows2.arrow;dy=0.5;dx=15;direction=north;notch=0;rounded=0;strokeWidth=1;fontSize=16;rotation=35;fillColor=#ffe6cc;strokeColor=#d79b00;" parent="1" vertex="1">
          <mxGeometry x="799" y="604" width="20" height="240" as="geometry" />
        </mxCell>
        <mxCell id="279d4c6e8b4f5ae2-4" value="" style="html=1;shadow=0;dashed=0;align=center;verticalAlign=middle;shape=mxgraph.arrows2.arrow;dy=0.5;dx=15;direction=north;notch=0;rounded=0;strokeWidth=1;fontSize=16;rotation=35;fillColor=#ffe6cc;strokeColor=#d79b00;" parent="1" vertex="1">
          <mxGeometry x="1029" y="604" width="20" height="240" as="geometry" />
        </mxCell>
        <mxCell id="279d4c6e8b4f5ae2-5" value="" style="html=1;shadow=0;dashed=0;align=center;verticalAlign=middle;shape=mxgraph.arrows2.arrow;dy=0.5;dx=15;direction=north;notch=0;rounded=0;strokeWidth=1;fontSize=16;rotation=90;fillColor=#ffe6cc;strokeColor=#d79b00;" parent="1" vertex="1">
          <mxGeometry x="639" y="99" width="20" height="1041" as="geometry" />
        </mxCell>
        <mxCell id="279d4c6e8b4f5ae2-6" value="" style="html=1;shadow=0;dashed=0;align=center;verticalAlign=middle;shape=mxgraph.arrows2.arrow;dy=0.5;dx=15;direction=north;notch=0;rounded=0;strokeWidth=1;fontSize=16;rotation=155;fillColor=#ffe6cc;strokeColor=#d79b00;" parent="1" vertex="1">
          <mxGeometry x="613" y="384" width="20" height="240" as="geometry" />
        </mxCell>
        <mxCell id="279d4c6e8b4f5ae2-7" value="" style="html=1;shadow=0;dashed=0;align=center;verticalAlign=middle;shape=mxgraph.arrows2.arrow;dy=0.5;dx=15;direction=north;notch=0;rounded=0;strokeWidth=1;fontSize=16;rotation=155;fillColor=#ffe6cc;strokeColor=#d79b00;" parent="1" vertex="1">
          <mxGeometry x="818" y="385" width="20" height="240" as="geometry" />
        </mxCell>
        <mxCell id="279d4c6e8b4f5ae2-8" value="" style="html=1;shadow=0;dashed=0;align=center;verticalAlign=middle;shape=mxgraph.arrows2.arrow;dy=0.5;dx=15;direction=north;notch=0;rounded=0;strokeWidth=1;fontSize=16;rotation=155;fillColor=#ffe6cc;strokeColor=#d79b00;" parent="1" vertex="1">
          <mxGeometry x="1048" y="384" width="20" height="240" as="geometry" />
        </mxCell>
        <mxCell id="279d4c6e8b4f5ae2-9" value="每天更新多次部署包" style="rounded=1;whiteSpace=wrap;html=1;shadow=1;strokeWidth=2;fontSize=16;fillColor=#ffe6cc;strokeColor=#d79b00;" parent="1" vertex="1">
          <mxGeometry x="499" y="350" width="150" height="54" as="geometry" />
        </mxCell>
        <mxCell id="279d4c6e8b4f5ae2-10" value="功能对应不上" style="rounded=1;whiteSpace=wrap;html=1;shadow=1;strokeWidth=2;fontSize=16;fillColor=#ffe6cc;strokeColor=#d79b00;" parent="1" vertex="1">
          <mxGeometry x="709" y="350" width="150" height="54" as="geometry" />
        </mxCell>
        <mxCell id="279d4c6e8b4f5ae2-11" value="部署不规范" style="rounded=1;whiteSpace=wrap;html=1;shadow=1;strokeWidth=2;fontSize=16;fillColor=#ffe6cc;strokeColor=#d79b00;" parent="1" vertex="1">
          <mxGeometry x="939" y="350" width="150" height="54" as="geometry" />
        </mxCell>
        <mxCell id="279d4c6e8b4f5ae2-12" value="部署调试问题多" style="rounded=1;whiteSpace=wrap;html=1;shadow=1;strokeWidth=2;fontSize=16;fillColor=#ffe6cc;strokeColor=#d79b00;" parent="1" vertex="1">
          <mxGeometry x="280" y="345" width="150" height="54" as="geometry" />
        </mxCell>
        <mxCell id="279d4c6e8b4f5ae2-13" value="业务数据接入" style="rounded=1;whiteSpace=wrap;html=1;shadow=1;strokeWidth=2;fontSize=16;fillColor=#ffe6cc;strokeColor=#d79b00;" parent="1" vertex="1">
          <mxGeometry x="672" y="816" width="150" height="54" as="geometry" />
        </mxCell>
        <mxCell id="279d4c6e8b4f5ae2-14" value="基础数据无指定人员维护" style="rounded=1;whiteSpace=wrap;html=1;shadow=1;strokeWidth=2;fontSize=16;fillColor=#ffe6cc;strokeColor=#d79b00;" parent="1" vertex="1">
          <mxGeometry x="902" y="816" width="150" height="54" as="geometry" />
        </mxCell>
        <mxCell id="279d4c6e8b4f5ae2-15" value="质量问题" style="ellipse;whiteSpace=wrap;html=1;rounded=1;shadow=1;strokeWidth=2;fontSize=16;fillColor=#ffe6cc;strokeColor=#d79b00;" parent="1" vertex="1">
          <mxGeometry x="1171" y="560" width="120" height="120" as="geometry" />
        </mxCell>
        <mxCell id="279d4c6e8b4f5ae2-16" value="研发后无直接测试人员" style="html=1;shadow=0;dashed=0;align=center;verticalAlign=middle;shape=mxgraph.arrows2.arrow;dy=0.5;dx=15;direction=north;notch=0;rounded=0;strokeWidth=1;fontSize=16;rotation=90;horizontal=0;labelPosition=left;verticalLabelPosition=middle;fillColor=#ffe6cc;strokeColor=#d79b00;" parent="1" vertex="1">
          <mxGeometry x="530" y="401" width="20" height="110" as="geometry" />
        </mxCell>
        <mxCell id="279d4c6e8b4f5ae2-17" value="部分菜单隐藏，&lt;div style=&quot;font-size: 16px;&quot;&gt;但部分内部页面未隐藏&lt;/div&gt;" style="html=1;shadow=0;dashed=0;align=center;verticalAlign=middle;shape=mxgraph.arrows2.arrow;dy=0.5;dx=15;direction=north;notch=0;rounded=0;strokeWidth=1;fontSize=16;rotation=90;horizontal=0;labelPosition=left;verticalLabelPosition=middle;fillColor=#ffe6cc;strokeColor=#d79b00;" parent="1" vertex="1">
          <mxGeometry x="733" y="401" width="20" height="110" as="geometry" />
        </mxCell>
        <mxCell id="279d4c6e8b4f5ae2-18" value="部署文档不规范" style="html=1;shadow=0;dashed=0;align=center;verticalAlign=middle;shape=mxgraph.arrows2.arrow;dy=0.5;dx=15;direction=north;notch=0;rounded=0;strokeWidth=1;fontSize=16;rotation=90;horizontal=0;labelPosition=left;verticalLabelPosition=middle;fillColor=#ffe6cc;strokeColor=#d79b00;" parent="1" vertex="1">
          <mxGeometry x="962" y="399" width="24" height="110" as="geometry" />
        </mxCell>
        <mxCell id="279d4c6e8b4f5ae2-19" value="自研产品未详细测试" style="html=1;shadow=0;dashed=0;align=center;verticalAlign=middle;shape=mxgraph.arrows2.arrow;dy=0.5;dx=15;direction=north;notch=0;rounded=0;strokeWidth=1;fontSize=16;rotation=90;horizontal=0;labelPosition=left;verticalLabelPosition=middle;fillColor=#ffe6cc;strokeColor=#d79b00;" parent="1" vertex="1">
          <mxGeometry x="300" y="470" width="20" height="110" as="geometry" />
        </mxCell>
        <mxCell id="279d4c6e8b4f5ae2-20" value="分工不清" style="html=1;shadow=0;dashed=0;align=center;verticalAlign=middle;shape=mxgraph.arrows2.arrow;dy=0.5;dx=15;direction=north;notch=0;rounded=0;strokeWidth=1;fontSize=16;rotation=90;horizontal=0;labelPosition=left;verticalLabelPosition=middle;fillColor=#ffe6cc;strokeColor=#d79b00;" parent="1" vertex="1">
          <mxGeometry x="733" y="669" width="19" height="110" as="geometry" />
        </mxCell>
        <mxCell id="279d4c6e8b4f5ae2-21" value="无标准说明表&lt;div style=&quot;font-size: 16px;&quot;&gt;接入流程表&lt;/div&gt;" style="html=1;shadow=0;dashed=0;align=center;verticalAlign=middle;shape=mxgraph.arrows2.arrow;dy=0.5;dx=15;direction=north;notch=0;rounded=0;strokeWidth=1;fontSize=16;rotation=90;horizontal=0;labelPosition=left;verticalLabelPosition=middle;fillColor=#ffe6cc;strokeColor=#d79b00;" parent="1" vertex="1">
          <mxGeometry x="939" y="706" width="20" height="110" as="geometry" />
        </mxCell>
        <mxCell id="279d4c6e8b4f5ae2-22" value="环境与现场不一致" style="html=1;shadow=0;dashed=0;align=center;verticalAlign=middle;shape=mxgraph.arrows2.arrow;dy=0.5;dx=15;direction=north;notch=0;rounded=0;strokeWidth=1;fontSize=16;rotation=90;horizontal=0;labelPosition=left;verticalLabelPosition=middle;fillColor=#ffe6cc;strokeColor=#d79b00;" parent="1" vertex="1">
          <mxGeometry x="570" y="485" width="20" height="110" as="geometry" />
        </mxCell>
        <mxCell id="279d4c6e8b4f5ae2-23" value="Event 5" style="html=1;shadow=0;dashed=0;align=center;verticalAlign=middle;shape=mxgraph.arrows2.arrow;dy=0.5;dx=15;direction=north;notch=0;rounded=0;strokeWidth=1;fontSize=16;rotation=90;horizontal=0;labelPosition=left;verticalLabelPosition=middle;fillColor=#ffe6cc;strokeColor=#d79b00;" parent="1" vertex="1">
          <mxGeometry x="773" y="485" width="20" height="110" as="geometry" />
        </mxCell>
        <mxCell id="279d4c6e8b4f5ae2-24" value="目录不统一" style="html=1;shadow=0;dashed=0;align=center;verticalAlign=middle;shape=mxgraph.arrows2.arrow;dy=0.5;dx=15;direction=north;notch=0;rounded=0;strokeWidth=1;fontSize=16;rotation=90;horizontal=0;labelPosition=left;verticalLabelPosition=middle;fillColor=#ffe6cc;strokeColor=#d79b00;" parent="1" vertex="1">
          <mxGeometry x="1004" y="485" width="20" height="110" as="geometry" />
        </mxCell>
        <mxCell id="279d4c6e8b4f5ae2-25" value="第三方外包产品bug多" style="html=1;shadow=0;dashed=0;align=center;verticalAlign=middle;shape=mxgraph.arrows2.arrow;dy=0.5;dx=15;direction=north;notch=0;rounded=0;strokeWidth=1;fontSize=16;rotation=90;horizontal=0;labelPosition=left;verticalLabelPosition=middle;fillColor=#ffe6cc;strokeColor=#d79b00;" parent="1" vertex="1">
          <mxGeometry x="280" y="404" width="20" height="110" as="geometry" />
        </mxCell>
        <mxCell id="279d4c6e8b4f5ae2-26" value="无统一数据表" style="html=1;shadow=0;dashed=0;align=center;verticalAlign=middle;shape=mxgraph.arrows2.arrow;dy=0.5;dx=15;direction=north;notch=0;rounded=0;strokeWidth=1;fontSize=16;rotation=90;horizontal=0;labelPosition=left;verticalLabelPosition=middle;fillColor=#ffe6cc;strokeColor=#d79b00;" parent="1" vertex="1">
          <mxGeometry x="773" y="620" width="20" height="110" as="geometry" />
        </mxCell>
        <mxCell id="279d4c6e8b4f5ae2-27" value="文档描述不全" style="html=1;shadow=0;dashed=0;align=center;verticalAlign=middle;shape=mxgraph.arrows2.arrow;dy=0.5;dx=15;direction=north;notch=0;rounded=0;strokeWidth=1;fontSize=16;rotation=90;horizontal=0;labelPosition=left;verticalLabelPosition=middle;fillColor=#ffe6cc;strokeColor=#d79b00;" parent="1" vertex="1">
          <mxGeometry x="991" y="635" width="20" height="110" as="geometry" />
        </mxCell>
        <mxCell id="cXapT6n8_plsPw-Xxc2B-4" value="没人能说全、明白" style="html=1;shadow=0;dashed=0;align=center;verticalAlign=middle;shape=mxgraph.arrows2.arrow;dy=0.5;dx=15;direction=north;notch=0;rounded=0;strokeWidth=1;fontSize=16;rotation=90;horizontal=0;labelPosition=left;verticalLabelPosition=middle;fillColor=#ffe6cc;strokeColor=#d79b00;" vertex="1" parent="1">
          <mxGeometry x="709" y="720" width="19" height="110" as="geometry" />
        </mxCell>
        <mxCell id="cXapT6n8_plsPw-Xxc2B-8" value="用户数据协调" style="rounded=1;whiteSpace=wrap;html=1;shadow=1;strokeWidth=2;fontSize=16;fillColor=#ffe6cc;strokeColor=#d79b00;" vertex="1" parent="1">
          <mxGeometry x="420" y="816" width="150" height="54" as="geometry" />
        </mxCell>
        <mxCell id="cXapT6n8_plsPw-Xxc2B-9" value="响应较慢" style="html=1;shadow=0;dashed=0;align=center;verticalAlign=middle;shape=mxgraph.arrows2.arrow;dy=0.5;dx=15;direction=north;notch=0;rounded=0;strokeWidth=1;fontSize=16;rotation=90;horizontal=0;labelPosition=left;verticalLabelPosition=middle;fillColor=#ffe6cc;strokeColor=#d79b00;" vertex="1" parent="1">
          <mxGeometry x="550" y="625" width="20" height="110" as="geometry" />
        </mxCell>
        <mxCell id="cXapT6n8_plsPw-Xxc2B-10" value="手机设备少" style="html=1;shadow=0;dashed=0;align=center;verticalAlign=middle;shape=mxgraph.arrows2.arrow;dy=0.5;dx=15;direction=north;notch=0;rounded=0;strokeWidth=1;fontSize=16;rotation=90;horizontal=0;labelPosition=left;verticalLabelPosition=middle;fillColor=#ffe6cc;strokeColor=#d79b00;" vertex="1" parent="1">
          <mxGeometry x="510" y="690" width="20" height="110" as="geometry" />
        </mxCell>
        <mxCell id="cXapT6n8_plsPw-Xxc2B-11" value="" style="html=1;shadow=0;dashed=0;align=center;verticalAlign=middle;shape=mxgraph.arrows2.arrow;dy=0.5;dx=15;direction=north;notch=0;rounded=0;strokeWidth=1;fontSize=16;rotation=155;fillColor=#ffe6cc;strokeColor=#d79b00;" vertex="1" parent="1">
          <mxGeometry x="390" y="380" width="20" height="240" as="geometry" />
        </mxCell>
        <mxCell id="cXapT6n8_plsPw-Xxc2B-12" value="" style="html=1;shadow=0;dashed=0;align=center;verticalAlign=middle;shape=mxgraph.arrows2.arrow;dy=0.5;dx=15;direction=north;notch=0;rounded=0;strokeWidth=1;fontSize=16;rotation=35;fillColor=#ffe6cc;strokeColor=#d79b00;" vertex="1" parent="1">
          <mxGeometry x="596.02" y="612.9" width="20" height="219" as="geometry" />
        </mxCell>
        <mxCell id="cXapT6n8_plsPw-Xxc2B-17" value="&lt;font style=&quot;font-size: 14px;&quot;&gt;&lt;b&gt;解决方案&lt;/b&gt;&lt;/font&gt;&lt;div style=&quot;font-size: 14px;&quot;&gt;1、基线化产品研发及测试；（2-3个月）&lt;/div&gt;&lt;div style=&quot;font-size: 14px;&quot;&gt;2、标准化文档说明（部署文档）；&lt;/div&gt;&lt;div style=&quot;font-size: 14px;&quot;&gt;3、数据初始化及数据治理文档详细化；&lt;/div&gt;&lt;div style=&quot;font-size: 14px;&quot;&gt;4、数据接入闻到那股说明；&lt;/div&gt;&lt;div style=&quot;font-size: 14px;&quot;&gt;5、加强内部自测、代码审查、考核排名；&lt;/div&gt;&lt;div style=&quot;font-size: 14px;&quot;&gt;&lt;br&gt;&lt;/div&gt;&lt;div style=&quot;font-size: 14px;&quot;&gt;&lt;br style=&quot;font-size: 14px;&quot;&gt;&lt;/div&gt;&lt;div style=&quot;font-size: 14px;&quot;&gt;&lt;br style=&quot;font-size: 14px;&quot;&gt;&lt;/div&gt;&lt;div style=&quot;font-size: 14px;&quot;&gt;&lt;br style=&quot;font-size: 14px;&quot;&gt;&lt;/div&gt;" style="rounded=0;whiteSpace=wrap;html=1;align=left;fillColor=#dae8fc;strokeColor=#6c8ebf;fontSize=14;" vertex="1" parent="1">
          <mxGeometry x="130" y="645" width="270" height="175" as="geometry" />
        </mxCell>
      </root>
    </mxGraphModel>
  </diagram>
</mxfile>
